<?xml version="1.0" encoding="UTF-8"?>
<!DOCTYPE svg PUBLIC "-//W3C//DTD SVG 1.1//EN" "http://www.w3.org/Graphics/SVG/1.1/DTD/svg11.dtd">
<svg xmlns="http://www.w3.org/2000/svg" version="1.1" width="2300px" height="2300px" style="shape-rendering:geometricPrecision; text-rendering:geometricPrecision; image-rendering:optimizeQuality; fill-rule:evenodd; clip-rule:evenodd" xmlns:xlink="http://www.w3.org/1999/xlink">
<g><path style="opacity:0.995" fill="#db2d22" d="M 1105.5,-0.5 C 1134.83,-0.5 1164.17,-0.5 1193.5,-0.5C 1503.02,16.2112 1765.52,134.878 1981,355.5C 2178.15,565.896 2284.31,815.896 2299.5,1105.5C 2299.5,1134.83 2299.5,1164.17 2299.5,1193.5C 2282.79,1503.02 2164.12,1765.52 1943.5,1981C 1733.11,2178.15 1483.11,2284.31 1193.5,2299.5C 1164.17,2299.5 1134.83,2299.5 1105.5,2299.5C 815.895,2284.31 565.895,2178.15 355.5,1981C 134.877,1765.52 16.2104,1503.02 -0.5,1193.5C -0.5,1164.17 -0.5,1134.83 -0.5,1105.5C 16.2104,795.981 134.877,533.481 355.5,318C 565.895,120.853 815.895,14.6867 1105.5,-0.5 Z"/></g>
<g><path style="opacity:1" fill="#fefdfd" d="M 1099.5,16.5 C 1394.78,8.08419 1655.44,97.5842 1881.5,285C 2082.47,457.998 2209.64,675.165 2263,936.5C 2312.88,1215.2 2267.55,1477.2 2127,1722.5C 1996,1940.15 1813.5,2098.65 1579.5,2198C 1333.98,2296.19 1083.98,2309.19 829.5,2237C 562.5,2154.25 352,1996.75 198,1764.5C 47.8113,1527.48 -9.1887,1269.48 27,990.5C 63.7161,751.09 164.383,543.757 329,368.5C 508.617,182.76 726.784,69.2598 983.5,28C 1022.19,22.8971 1060.86,19.0638 1099.5,16.5 Z"/></g>
<g><path style="opacity:1" fill="#da2920" d="M 1111.5,63.5 C 1396.55,58.1526 1646.89,147.319 1862.5,331C 2038.41,486.891 2153.91,679.724 2209,909.5C 2262.57,1158.15 2234.57,1397.15 2125,1626.5C 2009.53,1854.97 1836.37,2024.47 1605.5,2135C 1373.04,2240.04 1132.7,2262.71 884.5,2203C 650.875,2141.21 457.708,2017.38 305,1831.5C 129.063,1608.98 49.3968,1355.31 66,1070.5C 88.0618,813.464 186.395,591.131 361,403.5C 551.362,205.914 783.862,93.7476 1058.5,67C 1076.33,65.989 1094,64.8224 1111.5,63.5 Z"/></g>
<g><path style="opacity:1" fill="#fefefe" d="M 1097.5,80.5 C 1378.04,71.3951 1625.7,155.895 1840.5,334C 2019.06,487.496 2136.23,679.329 2192,909.5C 2240.52,1129.24 2223.19,1343.57 2140,1552.5C 2040.17,1789.32 1877.67,1969.49 1652.5,2093C 1447.9,2200.38 1230.9,2239.05 1001.5,2209C 750.263,2170.48 538.096,2059.32 365,1875.5C 194.861,1688.97 100.527,1468.97 82,1215.5C 68.5014,941.03 146.168,696.363 315,481.5C 474.915,285.218 679.081,159.051 927.5,103C 983.825,91.87 1040.49,84.37 1097.5,80.5 Z"/></g>
<g><path style="opacity:1" fill="#00923f" d="M 1166.5,165.5 C 1166.5,176.5 1166.5,187.5 1166.5,198.5C 1148.66,198.17 1130.99,198.503 1113.5,199.5C 1113.5,208.167 1113.5,216.833 1113.5,225.5C 1130.17,225.5 1146.83,225.5 1163.5,225.5C 1163.5,236.5 1163.5,247.5 1163.5,258.5C 1146.83,258.5 1130.17,258.5 1113.5,258.5C 1113.5,267.167 1113.5,275.833 1113.5,284.5C 1130.99,285.497 1148.66,285.83 1166.5,285.5C 1166.5,296.833 1166.5,308.167 1166.5,319.5C 1135.17,319.5 1103.83,319.5 1072.5,319.5C 1072.5,268.167 1072.5,216.833 1072.5,165.5C 1103.83,165.5 1135.17,165.5 1166.5,165.5 Z"/></g>
<g><path style="opacity:1" fill="#049240" d="M 1213.5,166.5 C 1236.61,168.86 1259.61,172.026 1282.5,176C 1324.84,186.173 1344.67,213.006 1342,256.5C 1336.85,302.825 1311.01,326.158 1264.5,326.5C 1241.07,325.039 1217.74,322.706 1194.5,319.5C 1200.92,268.51 1207.25,217.51 1213.5,166.5 Z"/></g>
<g><path style="opacity:1" fill="#049240" d="M 987.5,176.5 C 989.144,176.286 990.644,176.62 992,177.5C 1011.03,224.921 1029.86,272.421 1048.5,320C 1048.09,320.945 1047.43,321.612 1046.5,322C 1036.5,324.333 1026.5,326.667 1016.5,329C 1014.42,329.808 1012.42,329.641 1010.5,328.5C 998.641,298.425 987.475,268.091 977,237.5C 975.039,271.496 973.205,305.496 971.5,339.5C 962.558,340.944 953.724,342.944 945,345.5C 927.317,316.141 910.651,286.141 895,255.5C 898.373,286.763 901.54,318.096 904.5,349.5C 904.167,351.167 903.833,352.833 903.5,354.5C 891.557,357.713 879.557,360.713 867.5,363.5C 862.989,313.048 858.989,262.548 855.5,212C 855.629,210.019 856.296,208.353 857.5,207C 869.678,204.22 881.844,201.387 894,198.5C 894.833,198.833 895.667,199.167 896.5,199.5C 913.189,228.878 929.356,258.545 945,288.5C 945.811,261.473 947.145,234.473 949,207.5C 949.22,200.087 950.053,192.754 951.5,185.5C 963.726,182.916 975.726,179.916 987.5,176.5 Z"/></g>
<g><path style="opacity:1" fill="#80c89f" d="M 1166.5,165.5 C 1167.49,176.654 1167.83,187.988 1167.5,199.5C 1149.5,199.5 1131.5,199.5 1113.5,199.5C 1130.99,198.503 1148.66,198.17 1166.5,198.5C 1166.5,187.5 1166.5,176.5 1166.5,165.5 Z"/></g>
<g><path style="opacity:1" fill="#fdfefd" d="M 1250.5,205.5 C 1297.55,209.911 1311.39,233.911 1292,277.5C 1285.97,285.766 1277.81,290.266 1267.5,291C 1258.48,291.642 1249.48,291.475 1240.5,290.5C 1243.75,262.154 1247.08,233.821 1250.5,205.5 Z"/></g>
<g><path style="opacity:1" fill="#049240" d="M 789.5,233.5 C 791.335,234.122 792.502,235.456 793,237.5C 796.704,246.407 800.538,255.24 804.5,264C 788.395,271.386 772.061,278.22 755.5,284.5C 758.036,291.913 760.869,299.246 764,306.5C 764.368,307.91 765.201,308.91 766.5,309.5C 781.418,302.972 796.418,296.638 811.5,290.5C 816.662,300.49 820.995,310.824 824.5,321.5C 808.883,327.317 793.55,333.817 778.5,341C 781.854,348.877 785.354,356.71 789,364.5C 805.026,357.212 821.193,350.212 837.5,343.5C 842.265,353.966 846.932,364.466 851.5,375C 822.593,387.371 793.76,399.871 765,412.5C 744.452,365.531 724.285,318.365 704.5,271C 704.905,270.055 705.572,269.388 706.5,269C 734.488,257.666 762.155,245.833 789.5,233.5 Z"/></g>
<g><path style="opacity:1" fill="#059240" d="M 1507.5,236.5 C 1536.26,235.41 1560.26,245.41 1579.5,266.5C 1574.1,280.54 1568.6,294.54 1563,308.5C 1550.95,278.554 1530.12,269.72 1500.5,282C 1480.53,298.238 1475.03,318.405 1484,342.5C 1494.64,359.227 1509.8,365.727 1529.5,362C 1534.27,360.45 1538.94,358.617 1543.5,356.5C 1543.83,356.833 1544.17,357.167 1544.5,357.5C 1539.17,371.167 1533.83,384.833 1528.5,398.5C 1494.9,401.777 1468.4,389.777 1449,362.5C 1429.29,322.245 1435.46,286.412 1467.5,255C 1479.52,245.822 1492.85,239.655 1507.5,236.5 Z"/></g>
<g><path style="opacity:1" fill="#85caa2" d="M 1113.5,284.5 C 1131.5,284.5 1149.5,284.5 1167.5,284.5C 1167.83,296.345 1167.49,308.012 1166.5,319.5C 1166.5,308.167 1166.5,296.833 1166.5,285.5C 1148.66,285.83 1130.99,285.497 1113.5,284.5 Z"/></g>
<g><path style="opacity:1" fill="#049240" d="M 1630.5,287.5 C 1642.78,294.646 1654.78,302.313 1666.5,310.5C 1655.83,327.167 1645.17,343.833 1634.5,360.5C 1649.56,370.894 1664.9,380.894 1680.5,390.5C 1691.86,374.308 1703.02,357.975 1714,341.5C 1725.95,348.554 1737.45,356.22 1748.5,364.5C 1720.67,407.5 1692.83,450.5 1665,493.5C 1653.17,485.667 1641.33,477.833 1629.5,470C 1641.08,452.838 1652.42,435.504 1663.5,418C 1648.34,407.585 1633.01,397.418 1617.5,387.5C 1605.85,404.796 1594.18,422.13 1582.5,439.5C 1570.66,432.082 1559,424.415 1547.5,416.5C 1575.61,373.733 1603.28,330.733 1630.5,287.5 Z"/></g>
<g><path style="opacity:1" fill="#049240" d="M 657.5,296.5 C 659.074,296.937 660.241,297.937 661,299.5C 666.167,307.833 671.333,316.167 676.5,324.5C 662.002,333.917 647.335,343.084 632.5,352C 631.549,352.718 631.383,353.551 632,354.5C 636.5,361.5 641,368.5 645.5,375.5C 659.5,366.833 673.5,358.167 687.5,349.5C 693.735,358.291 699.735,367.291 705.5,376.5C 691.959,385.86 678.126,394.86 664,403.5C 663.685,404.908 664.018,406.241 665,407.5C 668.333,412.833 671.667,418.167 675,423.5C 675.837,425.007 677.004,425.507 678.5,425C 692.916,415.708 707.416,406.542 722,397.5C 728.167,407.167 734.333,416.833 740.5,426.5C 714.099,443.562 687.433,460.229 660.5,476.5C 633.167,433.167 605.833,389.833 578.5,346.5C 604.873,329.773 631.207,313.106 657.5,296.5 Z"/></g>
<g><path style="opacity:1" fill="#049240" d="M 1793.5,403.5 C 1813.43,420.596 1832.26,438.93 1850,458.5C 1864.5,485.33 1859.34,507.83 1834.5,526C 1819.55,534.8 1804.71,534.633 1790,525.5C 1785.78,550.127 1781.78,574.793 1778,599.5C 1766.98,588.983 1755.82,578.649 1744.5,568.5C 1744.17,567.5 1743.83,566.5 1743.5,565.5C 1748.5,543.852 1753,522.185 1757,500.5C 1744.06,514.733 1730.89,528.733 1717.5,542.5C 1707.68,533.851 1698.02,525.018 1688.5,516C 1723.34,478.329 1758.34,440.829 1793.5,403.5 Z"/></g>
<g><path style="opacity:1" fill="#039240" d="M 519.5,409.5 C 547.968,407.319 571.134,417.319 589,439.5C 610.624,465.982 613.291,494.315 597,524.5C 591.756,532.414 585.756,539.748 579,546.5C 564.968,560.201 550.634,573.534 536,586.5C 500.983,548.984 466.149,511.317 431.5,473.5C 448.729,456.436 466.729,440.269 485.5,425C 495.891,417.599 507.225,412.433 519.5,409.5 Z"/></g>
<g><path style="opacity:1" fill="#da2920" d="M 1118.5,409.5 C 1347.8,405.616 1540.63,486.616 1697,652.5C 1846.51,822.388 1908.51,1020.39 1883,1246.5C 1854.86,1436.33 1768.36,1593.16 1623.5,1717C 1461.85,1848.09 1276.85,1904.09 1068.5,1885C 872.062,1860.22 709.895,1773.05 582,1623.5C 456.036,1468.92 399.37,1291.59 412,1091.5C 429.952,897.103 510.119,733.937 652.5,602C 785.063,483.946 940.396,419.78 1118.5,409.5 Z"/></g>
<g><path style="opacity:1" fill="#fefdfe" d="M 1114.5,426.5 C 1310.42,420.85 1482.09,481.683 1629.5,609C 1795.63,761.831 1876.46,951.665 1872,1178.5C 1860.29,1382.4 1779.45,1552.9 1629.5,1690C 1472.94,1825.07 1290.94,1885.07 1083.5,1870C 867.021,1845.39 693.854,1746.56 564,1573.5C 441.957,1399.56 401.29,1207.89 442,998.5C 490.261,792.973 604.094,635.473 783.5,526C 885.913,466.316 996.247,433.149 1114.5,426.5 Z"/></g>
<g><path style="opacity:1" fill="#fdfefd" d="M 518.5,448.5 C 535.858,448.683 549.358,456.016 559,470.5C 568.288,482.132 569.955,494.799 564,508.5C 558.816,517.842 551.982,525.842 543.5,532.5C 523.828,512.161 504.495,491.494 485.5,470.5C 494.749,460.387 505.749,453.054 518.5,448.5 Z"/></g>
<g><path style="opacity:1" fill="#fcfdfd" d="M 1799.5,454.5 C 1806.86,459.363 1812.69,465.697 1817,473.5C 1817.89,483.564 1814.05,491.397 1805.5,497C 1800.92,498.476 1796.26,498.81 1791.5,498C 1784.55,494.356 1778.55,489.522 1773.5,483.5C 1782.19,473.813 1790.86,464.147 1799.5,454.5 Z"/></g>
<g><path style="opacity:1" fill="#28166f" d="M 1128.5,483.5 C 1310.9,481.436 1469.24,541.269 1603.5,663C 1761.67,816.642 1830.84,1003.81 1811,1224.5C 1786.63,1409.81 1701.8,1560.31 1556.5,1676C 1404.01,1790.21 1233.01,1833.88 1043.5,1807C 847.027,1771.04 694.527,1669.87 586,1503.5C 496.609,1357.84 465.943,1200.51 494,1031.5C 528.629,857.027 616.796,716.86 758.5,611C 868.914,531.582 992.248,489.082 1128.5,483.5 Z"/></g>
<g><path style="opacity:1" fill="#049240" d="M 398.5,512.5 C 408.111,518.33 417.111,525.163 425.5,533C 414.31,546.689 403.31,560.523 392.5,574.5C 398.854,580.183 405.52,585.516 412.5,590.5C 423.543,578.126 434.209,565.46 444.5,552.5C 452.999,559.168 461.332,566.002 469.5,573C 459.181,585.989 448.847,598.989 438.5,612C 444.5,617 450.5,622 456.5,627C 459.28,627.269 461.446,626.102 463,623.5C 472.296,611.039 482.13,599.039 492.5,587.5C 500.857,594.357 509.357,601.024 518,607.5C 518.667,608.5 518.667,609.5 518,610.5C 498.489,634.206 478.989,657.873 459.5,681.5C 419.435,649.804 379.768,617.637 340.5,585C 359.273,560.393 378.607,536.226 398.5,512.5 Z"/></g>
<g><path style="opacity:1" fill="#049240" d="M 1906.5,518.5 C 1915.72,529.246 1924.72,540.246 1933.5,551.5C 1893.58,583.714 1853.74,616.047 1814,648.5C 1804.69,637.865 1795.85,626.865 1787.5,615.5C 1827.42,583.387 1867.09,551.054 1906.5,518.5 Z"/></g>
<g><path style="opacity:1" fill="#059240" d="M 1939.5,611.5 C 1958.81,610.097 1974.64,616.764 1987,631.5C 1999.12,646.693 2004.95,664.026 2004.5,683.5C 1993.83,685.167 1983.17,686.833 1972.5,688.5C 1974.14,676.489 1971.64,665.489 1965,655.5C 1956.34,645.903 1948.34,646.237 1941,656.5C 1940.83,657.667 1940.67,658.833 1940.5,660C 1942.51,671.374 1945.35,682.54 1949,693.5C 1953.51,710.289 1949.35,724.456 1936.5,736C 1906.01,758.251 1878.84,754.751 1855,725.5C 1841.52,706.588 1836.69,685.588 1840.5,662.5C 1852.83,661.322 1865.16,661.322 1877.5,662.5C 1873.36,675.257 1873.53,687.923 1878,700.5C 1886.09,715.222 1896.43,717.222 1909,706.5C 1910.65,703.55 1911.48,700.383 1911.5,697C 1908.41,684.154 1905.25,671.321 1902,658.5C 1900.1,639.126 1907.94,625.293 1925.5,617C 1930.16,614.842 1934.83,613.009 1939.5,611.5 Z"/></g>
<g><path style="opacity:1" fill="#059240" d="M 322.5,646.5 C 341.577,646.291 357.41,653.291 370,667.5C 372.573,671.545 374.573,675.878 376,680.5C 376.256,688.23 376.422,695.897 376.5,703.5C 400.759,699.84 425.092,697.007 449.5,695C 442.117,708.264 435.117,721.764 428.5,735.5C 426.922,736.298 425.256,736.798 423.5,737C 401.826,738.216 380.159,739.549 358.5,741C 376.481,749.656 394.148,758.823 411.5,768.5C 405.961,779.745 400.294,790.911 394.5,802C 393.5,802.667 392.5,802.667 391.5,802C 346.344,779.255 301.344,756.255 256.5,733C 267.442,710.278 279.276,688.111 292,666.5C 299.704,655.909 309.87,649.243 322.5,646.5 Z"/></g>
<g><path style="opacity:1" fill="#fcfefd" d="M 320.5,689.5 C 331.794,688.233 340.627,692.233 347,701.5C 348.314,712.391 345.481,722.058 338.5,730.5C 326.677,724.755 315.01,718.755 303.5,712.5C 307.029,703.046 312.696,695.379 320.5,689.5 Z"/></g>
<g><path style="opacity:1" fill="#049240" d="M 2029.5,709.5 C 2030.68,709.281 2031.68,709.614 2032.5,710.5C 2047.67,742.833 2062.83,775.167 2078,807.5C 2078.75,808.635 2078.58,809.635 2077.5,810.5C 2067.83,815 2058.17,819.5 2048.5,824C 2047.5,824.667 2046.5,824.667 2045.5,824C 2040.87,814.576 2036.37,805.076 2032,795.5C 2031.44,794.978 2030.77,794.645 2030,794.5C 1994.98,810.837 1959.98,827.17 1925,843.5C 1918.71,831.077 1912.54,818.577 1906.5,806C 1941.25,789.025 1976.25,772.525 2011.5,756.5C 2012.61,755.277 2012.78,753.944 2012,752.5C 2007.7,743.393 2003.53,734.226 1999.5,725C 2009.38,719.562 2019.38,714.395 2029.5,709.5 Z"/></g>
<g><path style="opacity:1" fill="#fefefe" d="M 1579.5,1129.5 C 1588.35,1129.17 1597.02,1129.51 1605.5,1130.5C 1598.84,1136.33 1592.67,1142.66 1587,1149.5C 1584.85,1152.54 1585.01,1155.37 1587.5,1158C 1594.1,1159.5 1600.77,1159.83 1607.5,1159C 1625.15,1156.23 1642.82,1153.56 1660.5,1151C 1666.86,1150.17 1673.19,1150.34 1679.5,1151.5C 1675.52,1155.99 1671.35,1160.32 1667,1164.5C 1665.08,1167.34 1663.41,1170.34 1662,1173.5C 1661.17,1177.99 1663,1180.83 1667.5,1182C 1680.65,1183.03 1693.65,1182.03 1706.5,1179C 1735.05,1172.7 1763.05,1165.53 1790.5,1157.5C 1746.08,1203.77 1699.08,1246.94 1649.5,1287C 1616.31,1312.82 1580.98,1335.49 1543.5,1355C 1509.86,1371.32 1474.53,1381.99 1437.5,1387C 1383.13,1391.82 1332.8,1379.82 1286.5,1351C 1276.4,1344.54 1266.57,1337.7 1257,1330.5C 1244.49,1352.86 1230.49,1374.19 1215,1394.5C 1202.1,1409.74 1187.1,1422.4 1170,1432.5C 1161.82,1448.86 1153.65,1465.2 1145.5,1481.5C 1138.38,1465.66 1131.55,1449.66 1125,1433.5C 1106.41,1425.37 1090.74,1413.37 1078,1397.5C 1062.18,1377.38 1049.01,1355.54 1038.5,1332C 1037.83,1331.33 1037.17,1331.33 1036.5,1332C 980.848,1384.92 915.515,1402.25 840.5,1384C 798.173,1371.67 758.506,1353.67 721.5,1330C 665.042,1292.57 612.042,1250.57 562.5,1204C 544.5,1186.67 526.5,1169.33 508.5,1152C 537.363,1158.16 566.363,1164.16 595.5,1170C 608.743,1172.45 622.077,1173.45 635.5,1173C 640.272,1172.57 642.439,1170.07 642,1165.5C 632.424,1155.45 621.591,1146.95 609.5,1140C 609.833,1139.67 610.167,1139.33 610.5,1139C 618.755,1137.43 627.089,1137.09 635.5,1138C 657.015,1141.81 678.348,1146.48 699.5,1152C 706.894,1153.75 714.227,1153.75 721.5,1152C 722.591,1149.94 722.758,1147.77 722,1145.5C 715.769,1136.43 708.602,1128.1 700.5,1120.5C 701.376,1119.75 702.376,1119.25 703.5,1119C 708.167,1118.33 712.833,1118.33 717.5,1119C 734.471,1122.65 751.471,1126.32 768.5,1130C 793.889,1134.97 800.056,1126.47 787,1104.5C 782.887,1098.05 778.387,1091.89 773.5,1086C 793.514,1087.82 813.514,1090.15 833.5,1093C 841.564,1093.86 849.564,1093.53 857.5,1092C 862.924,1089.98 864.758,1086.15 863,1080.5C 858.179,1071.03 852.013,1062.53 844.5,1055C 874.177,1057.87 903.844,1061.2 933.5,1065C 943.321,1066.11 952.988,1065.45 962.5,1063C 963.554,1061.61 963.72,1060.11 963,1058.5C 953.127,1049.14 941.96,1041.64 929.5,1036C 928.672,1035.09 927.672,1034.42 926.5,1034C 926.833,1033.67 927.167,1033.33 927.5,1033C 956.874,1029.24 986.207,1025.24 1015.5,1021C 1016.43,1020.61 1017.09,1019.95 1017.5,1019C 992.47,963.107 967.304,907.274 942,851.5C 941.187,827.647 952.687,816.814 976.5,819C 991.86,821.716 1006.69,826.216 1021,832.5C 1045.8,812.592 1071.63,811.259 1098.5,828.5C 1126.7,815.027 1153.86,816.694 1180,833.5C 1203.15,820.147 1226.98,818.98 1251.5,830C 1257.94,833.634 1264.44,837.134 1271,840.5C 1281.83,832.169 1294,826.669 1307.5,824C 1329.73,822.453 1347.4,830.619 1360.5,848.5C 1334.1,910.04 1308.1,971.706 1282.5,1033.5C 1315.2,1034.32 1347.87,1035.82 1380.5,1038C 1372.1,1043.06 1364.27,1048.9 1357,1055.5C 1353.18,1060.37 1354.35,1063.54 1360.5,1065C 1378.89,1065.24 1397.22,1064.24 1415.5,1062C 1425.17,1061.33 1434.83,1061.33 1444.5,1062C 1445.45,1062.72 1445.62,1063.55 1445,1064.5C 1439.35,1070.47 1434.68,1077.13 1431,1084.5C 1429.76,1091.28 1432.59,1095.45 1439.5,1097C 1460.99,1096.85 1482.33,1094.85 1503.5,1091C 1511.53,1090.3 1519.53,1090.47 1527.5,1091.5C 1527.65,1092.55 1527.48,1093.55 1527,1094.5C 1517.05,1104.24 1509.22,1115.41 1503.5,1128C 1503.64,1130.15 1504.64,1131.82 1506.5,1133C 1514.5,1133.67 1522.5,1133.67 1530.5,1133C 1546.78,1131.15 1563.12,1129.98 1579.5,1129.5 Z"/></g>
<g><path style="opacity:1" fill="#059240" d="M 210.5,850.5 C 219.9,852.688 229.234,855.188 238.5,858C 240.573,858.118 241.907,859.118 242.5,861C 237.323,877.698 232.656,894.531 228.5,911.5C 237.122,913.708 245.789,915.708 254.5,917.5C 258.547,901.311 263.214,885.311 268.5,869.5C 278.902,872.683 289.235,876.016 299.5,879.5C 294.934,894.596 290.601,909.763 286.5,925C 286.755,926.326 287.422,927.326 288.5,928C 295.966,930.768 303.633,932.602 311.5,933.5C 315.467,916.796 320.134,900.296 325.5,884C 334.912,885.686 344.245,888.02 353.5,891C 355.421,891.36 357.088,892.194 358.5,893.5C 349.538,923.352 341.204,953.352 333.5,983.5C 283.878,969.344 234.211,955.344 184.5,941.5C 192.767,911.035 201.434,880.702 210.5,850.5 Z"/></g>
<g><path style="opacity:1" fill="#059240" d="M 2086.5,850.5 C 2088.77,850.141 2090.6,850.808 2092,852.5C 2095.94,864.808 2099.77,877.142 2103.5,889.5C 2054.38,905.428 2005.05,920.762 1955.5,935.5C 1952.11,922.006 1948.11,908.673 1943.5,895.5C 1944,895.167 1944.5,894.833 1945,894.5C 1992.43,880.298 2039.6,865.631 2086.5,850.5 Z"/></g>
<g><path style="opacity:1" fill="#059240" d="M 1964.5,959.5 C 2017.81,969.628 2071.14,979.628 2124.5,989.5C 2126.74,1006.51 2129.07,1023.51 2131.5,1040.5C 2131.17,1041.17 2130.83,1041.83 2130.5,1042.5C 2082.54,1067.65 2034.2,1091.98 1985.5,1115.5C 1984.25,1102.46 1982.59,1089.46 1980.5,1076.5C 1980.83,1075.83 1981.17,1075.17 1981.5,1074.5C 1989.5,1070.83 1997.5,1067.17 2005.5,1063.5C 2004.11,1043.83 2001.61,1024.16 1998,1004.5C 1988.6,1002.75 1979.1,1001.42 1969.5,1000.5C 1967.53,986.874 1965.87,973.207 1964.5,959.5 Z"/></g>
<g><path style="opacity:1" fill="#039240" d="M 164.5,1142.5 C 163.612,1139.95 163.279,1137.28 163.5,1134.5C 164.588,1123.19 165.255,1111.86 165.5,1100.5C 185.862,1101.84 206.195,1103.5 226.5,1105.5C 227.503,1086.81 228.837,1068.14 230.5,1049.5C 210.822,1047.98 191.155,1046.31 171.5,1044.5C 172.311,1030.48 173.311,1016.48 174.5,1002.5C 225.834,1006.83 277.167,1011.17 328.5,1015.5C 327.06,1029.46 326.06,1043.46 325.5,1057.5C 304.494,1055.91 283.494,1054.24 262.5,1052.5C 260.353,1071.12 258.686,1089.79 257.5,1108.5C 278.165,1110.17 298.832,1111.83 319.5,1113.5C 318.689,1127.52 317.689,1141.52 316.5,1155.5C 265.833,1151.17 215.167,1146.83 164.5,1142.5 Z"/></g>
<g><path style="opacity:1" fill="#fdfefd" d="M 2029.5,1009.5 C 2053.44,1013.32 2077.44,1016.82 2101.5,1020C 2079.13,1029.85 2056.8,1039.68 2034.5,1049.5C 2033.39,1036.09 2031.73,1022.76 2029.5,1009.5 Z"/></g>
<g><path style="opacity:1" fill="#9f97be" d="M 1579.5,1129.5 C 1588.66,1128.34 1597.99,1128.18 1607.5,1129C 1606.96,1129.72 1606.29,1130.22 1605.5,1130.5C 1597.02,1129.51 1588.35,1129.17 1579.5,1129.5 Z"/></g>
<g><path style="opacity:1" fill="#049240" d="M 2029.5,1252.5 C 2028.23,1253.09 2026.9,1253.59 2025.5,1254C 2035.83,1254.5 2046.16,1254.67 2056.5,1254.5C 2081.16,1256.26 2105.83,1257.93 2130.5,1259.5C 2129.94,1272.84 2129.28,1286.17 2128.5,1299.5C 2077.17,1296.07 2025.84,1292.74 1974.5,1289.5C 1975.17,1275.81 1976.17,1262.14 1977.5,1248.5C 2005.17,1231 2032.83,1213.5 2060.5,1196C 2068.72,1192.06 2077.05,1188.39 2085.5,1185C 2051.13,1183.89 2016.79,1182.06 1982.5,1179.5C 1983.01,1165.82 1983.68,1152.16 1984.5,1138.5C 2035.82,1142.17 2087.15,1145.83 2138.5,1149.5C 2137.52,1162.82 2136.69,1176.15 2136,1189.5C 2109.25,1206.79 2082.42,1223.96 2055.5,1241C 2047.1,1245.52 2038.43,1249.35 2029.5,1252.5 Z"/></g>
<g><path style="opacity:1" fill="#86caa3" d="M 163.5,1134.5 C 163.279,1137.28 163.612,1139.95 164.5,1142.5C 163.252,1141.67 162.585,1140.33 162.5,1138.5C 162.511,1136.95 162.844,1135.62 163.5,1134.5 Z"/></g>
<g><path style="opacity:1" fill="#059240" d="M 203.5,1214.5 C 203.5,1216.5 203.5,1218.5 203.5,1220.5C 206.713,1220.81 209.713,1220.48 212.5,1219.5C 248.808,1216.78 285.141,1214.45 321.5,1212.5C 322.831,1226.47 323.831,1240.47 324.5,1254.5C 285.486,1256.6 246.486,1258.93 207.5,1261.5C 207.977,1273.51 208.644,1285.51 209.5,1297.5C 197.119,1297.4 184.785,1298.07 172.5,1299.5C 170.609,1262.14 168.276,1224.81 165.5,1187.5C 177.544,1187.09 189.544,1186.59 201.5,1186C 202.803,1195.4 203.469,1204.9 203.5,1214.5 Z"/></g>
<g><path style="opacity:1" fill="#8bcca6" d="M 203.5,1214.5 C 204.451,1215.92 204.784,1217.59 204.5,1219.5C 207.167,1219.5 209.833,1219.5 212.5,1219.5C 209.713,1220.48 206.713,1220.81 203.5,1220.5C 203.5,1218.5 203.5,1216.5 203.5,1214.5 Z"/></g>
<g><path style="opacity:1" fill="#6fc091" d="M 2029.5,1252.5 C 2038.5,1253.17 2047.5,1253.83 2056.5,1254.5C 2046.16,1254.67 2035.83,1254.5 2025.5,1254C 2026.9,1253.59 2028.23,1253.09 2029.5,1252.5 Z"/></g>
<g><path style="opacity:1" fill="#069341" d="M 298.5,1402.5 C 317.551,1401.05 326.385,1409.72 325,1428.5C 320.883,1439.4 316.217,1450.07 311,1460.5C 310.257,1462.44 310.424,1464.27 311.5,1466C 321.148,1461.73 329.815,1455.73 337.5,1448C 347.21,1439.17 358.21,1437.17 370.5,1442C 379.428,1449.11 382.594,1458.28 380,1469.5C 378.6,1472.9 376.433,1475.74 373.5,1478C 367.103,1480.71 360.436,1482.21 353.5,1482.5C 341.527,1481.1 329.527,1480.6 317.5,1481C 317.043,1481.41 316.709,1481.91 316.5,1482.5C 318.024,1484.86 320.024,1486.69 322.5,1488C 335.11,1493.88 346.61,1501.38 357,1510.5C 363.549,1524.14 360.049,1534.31 346.5,1541C 332.735,1546.19 322.568,1542.35 316,1529.5C 312.351,1517.57 309.017,1505.57 306,1493.5C 302.284,1490.52 299.951,1491.52 299,1496.5C 297.079,1507.03 294.412,1517.36 291,1527.5C 284.733,1541.49 274.233,1545.99 259.5,1541C 249.448,1536.4 244.948,1528.57 246,1517.5C 249.75,1508.75 255.916,1502.25 264.5,1498C 273.388,1494.07 281.388,1488.9 288.5,1482.5C 288.291,1481.91 287.957,1481.41 287.5,1481C 275.788,1480.34 264.121,1480.84 252.5,1482.5C 228.508,1482.16 220.674,1470.83 229,1448.5C 234.924,1440.52 242.757,1437.69 252.5,1440C 258.381,1441.61 263.714,1444.27 268.5,1448C 275.833,1454 283.167,1460 290.5,1466C 292.925,1466.99 294.591,1466.32 295.5,1464C 291.078,1452.99 286.245,1442.16 281,1431.5C 277.679,1416.12 283.512,1406.46 298.5,1402.5 Z"/></g>
<g><path style="opacity:1" fill="#069340" d="M 1987.5,1411.5 C 1994.26,1411.12 2000.92,1411.62 2007.5,1413C 2018.38,1419.31 2021.55,1428.48 2017,1440.5C 2012.94,1450.28 2008.61,1459.95 2004,1469.5C 2003.23,1474.48 2005.06,1475.64 2009.5,1473C 2019.35,1465.91 2029.01,1458.58 2038.5,1451C 2058.06,1443.11 2070.06,1449.45 2074.5,1470C 2074.42,1478.72 2070.42,1484.72 2062.5,1488C 2056.28,1489.7 2049.95,1490.54 2043.5,1490.5C 2034.82,1490.01 2026.15,1489.35 2017.5,1488.5C 2015.24,1488.53 2013.07,1488.87 2011,1489.5C 2010.29,1491.37 2010.79,1492.87 2012.5,1494C 2023.43,1499.94 2034.09,1506.27 2044.5,1513C 2056.49,1524.38 2056.49,1535.71 2044.5,1547C 2026.06,1556.08 2013.56,1550.91 2007,1531.5C 2004.67,1522.16 2002.33,1512.83 2000,1503.5C 1997.67,1498.17 1995.33,1498.17 1993,1503.5C 1990.74,1514.7 1987.74,1525.7 1984,1536.5C 1974.87,1552.93 1962.37,1555.93 1946.5,1545.5C 1939.09,1537.91 1937.59,1529.24 1942,1519.5C 1952.03,1509.56 1963.53,1501.73 1976.5,1496C 1983.74,1490.55 1982.74,1488.05 1973.5,1488.5C 1964,1489.19 1954.5,1489.86 1945,1490.5C 1937.64,1490.62 1930.81,1488.79 1924.5,1485C 1916.43,1474.43 1916.59,1463.93 1925,1453.5C 1934.68,1446.03 1944.84,1445.53 1955.5,1452C 1964.83,1459.33 1974.17,1466.67 1983.5,1474C 1987.67,1475.17 1989.17,1473.67 1988,1469.5C 1983.06,1459.29 1978.39,1448.95 1974,1438.5C 1971.13,1425.57 1975.63,1416.57 1987.5,1411.5 Z"/></g>
<g><path style="opacity:1" fill="#059240" d="M 419.5,1624.5 C 467.344,1621.68 497.677,1643.35 510.5,1689.5C 510.392,1690.44 510.059,1691.28 509.5,1692C 497.712,1700.79 486.212,1709.95 475,1719.5C 479.043,1699.62 473.209,1683.45 457.5,1671C 440.321,1662.56 423.987,1663.9 408.5,1675C 389.583,1689.42 384.75,1707.58 394,1729.5C 403.194,1743.69 416.36,1751.02 433.5,1751.5C 421.961,1761.19 410.127,1770.52 398,1779.5C 364.301,1763.11 347.967,1736.11 349,1698.5C 357.34,1659.33 380.84,1634.66 419.5,1624.5 Z"/></g>
<g><path style="opacity:1" fill="#039240" d="M 1855.5,1627.5 C 1888.53,1625.43 1914.69,1637.76 1934,1664.5C 1948.27,1688.19 1949.27,1712.53 1937,1737.5C 1921.5,1760.17 1904.67,1781.83 1886.5,1802.5C 1846.85,1770.18 1807.52,1737.51 1768.5,1704.5C 1785.21,1683.3 1803.21,1663.13 1822.5,1644C 1832.49,1636.34 1843.49,1630.84 1855.5,1627.5 Z"/></g>
<g><path style="opacity:1" fill="#fdfefd" d="M 1854.5,1667.5 C 1872.29,1666.98 1886.79,1673.64 1898,1687.5C 1908.99,1702.15 1909.32,1717.15 1899,1732.5C 1895,1737.83 1891,1743.17 1887,1748.5C 1865.38,1731.21 1844.04,1713.54 1823,1695.5C 1822.33,1694.5 1822.33,1693.5 1823,1692.5C 1831.07,1680.91 1841.57,1672.58 1854.5,1667.5 Z"/></g>
<g><path style="opacity:1" fill="#049240" d="M 520.5,1702.5 C 531.723,1711.05 542.056,1720.72 551.5,1731.5C 538.198,1746.14 524.532,1760.47 510.5,1774.5C 523.322,1787.15 536.322,1799.65 549.5,1812C 550.167,1812.67 550.833,1812.67 551.5,1812C 565,1797.83 578.5,1783.67 592,1769.5C 602.344,1779.01 612.511,1788.68 622.5,1798.5C 586.806,1835.86 551.139,1873.19 515.5,1910.5C 505.458,1900.82 495.458,1891.16 485.5,1881.5C 499.65,1866.18 513.984,1851.02 528.5,1836C 515.317,1823.32 501.984,1810.82 488.5,1798.5C 473.846,1813.32 459.346,1828.32 445,1843.5C 434.488,1834.32 424.654,1824.49 415.5,1814C 449.956,1777.21 484.789,1740.71 520,1704.5C 520.464,1703.91 520.631,1703.24 520.5,1702.5 Z"/></g>
<g><path style="opacity:1" fill="#049240" d="M 1753.5,1745.5 C 1793.98,1743.86 1822.15,1761.52 1838,1798.5C 1847.65,1835.87 1837.82,1867.04 1808.5,1892C 1783.07,1909.39 1755.74,1913.06 1726.5,1903C 1687.68,1883.11 1672.51,1851.61 1681,1808.5C 1692.97,1773.35 1717.14,1752.35 1753.5,1745.5 Z"/></g>
<g><path style="opacity:1" fill="#fdfefd" d="M 1749.5,1783.5 C 1780.33,1784.16 1798.33,1799.66 1803.5,1830C 1801.89,1855.11 1788.55,1868.95 1763.5,1871.5C 1739.79,1867.96 1724.62,1854.63 1718,1831.5C 1715.25,1806.65 1725.75,1790.65 1749.5,1783.5 Z"/></g>
<g><path style="opacity:1" fill="#049240" d="M 630.5,1807.5 C 634.127,1808.28 637.46,1809.78 640.5,1812C 649.376,1817.6 658.043,1823.43 666.5,1829.5C 651.333,1853.17 636.167,1876.83 621,1900.5C 617.397,1906.71 614.064,1913.04 611,1919.5C 607.428,1931.39 610.928,1940.55 621.5,1947C 631.079,1953.76 640.745,1954.09 650.5,1948C 655.258,1943.63 659.425,1938.8 663,1933.5C 679.042,1908.58 695.209,1883.75 711.5,1859C 714.623,1859.72 717.623,1861.05 720.5,1863C 729.376,1868.6 738.043,1874.43 746.5,1880.5C 727.079,1911.68 706.912,1942.35 686,1972.5C 670.722,1991.04 651.555,1996.87 628.5,1990C 609.243,1982.46 592.41,1971.29 578,1956.5C 567.667,1943.84 564.334,1929.51 568,1913.5C 570.221,1906.17 573.221,1899.17 577,1892.5C 594.855,1864.11 612.688,1835.78 630.5,1807.5 Z"/></g>
<g><path style="opacity:1" fill="#049240" d="M 1603.5,1852.5 C 1613.87,1852.23 1624.21,1852.73 1634.5,1854C 1640.11,1855.56 1645.44,1857.73 1650.5,1860.5C 1643.36,1871.47 1636.03,1882.3 1628.5,1893C 1608.01,1885.6 1590.85,1890.44 1577,1907.5C 1571.83,1916.16 1569.83,1925.5 1571,1935.5C 1574.32,1950.81 1581.82,1963.65 1593.5,1974C 1608.83,1984.98 1624.5,1985.32 1640.5,1975C 1655.17,1965.82 1661.34,1952.65 1659,1935.5C 1658.63,1934.58 1658.13,1933.75 1657.5,1933C 1655.4,1933.03 1653.4,1933.7 1651.5,1935C 1641.73,1940.97 1631.9,1946.8 1622,1952.5C 1616.01,1943.86 1610.51,1934.86 1605.5,1925.5C 1628.93,1911.37 1652.43,1897.37 1676,1883.5C 1692.4,1904.84 1698.4,1928.84 1694,1955.5C 1687.46,1976.38 1674.63,1992.21 1655.5,2003C 1627.67,2019.73 1599.33,2020.73 1570.5,2006C 1538.57,1983.97 1526.07,1953.8 1533,1915.5C 1541.83,1888.01 1559.66,1868.84 1586.5,1858C 1592.25,1856.03 1597.92,1854.19 1603.5,1852.5 Z"/></g>
<g><path style="opacity:1" fill="#059240" d="M 761.5,1886.5 C 783.171,1895.5 804.504,1905.33 825.5,1916C 849.052,1929.99 855.885,1949.82 846,1975.5C 836.327,1997.59 819.494,2007.09 795.5,2004C 799.557,2028.12 803.557,2052.29 807.5,2076.5C 793.081,2070.46 778.748,2064.13 764.5,2057.5C 762.109,2034.8 759.609,2012.13 757,1989.5C 749.104,2007.62 740.437,2025.29 731,2042.5C 719.431,2037.3 707.931,2031.97 696.5,2026.5C 718.173,1979.8 739.84,1933.14 761.5,1886.5 Z"/></g>
<g><path style="opacity:1" fill="#049240" d="M 1450.5,1927.5 C 1452.29,1927.88 1453.29,1929.05 1453.5,1931C 1456.89,1940.67 1459.56,1950.5 1461.5,1960.5C 1444.32,1964.79 1427.66,1970.29 1411.5,1977C 1413.87,1985.27 1416.53,1993.44 1419.5,2001.5C 1434.73,1996.19 1450.07,1991.19 1465.5,1986.5C 1466.65,1986.82 1467.48,1987.48 1468,1988.5C 1470.83,1997.67 1473.67,2006.83 1476.5,2016C 1476.36,2016.77 1476.02,2017.44 1475.5,2018C 1459.71,2022.87 1444.05,2028.04 1428.5,2033.5C 1435.11,2052.6 1440.77,2071.93 1445.5,2091.5C 1432.55,2095.37 1419.55,2099.04 1406.5,2102.5C 1391.83,2053.49 1377.16,2004.49 1362.5,1955.5C 1392.11,1946.74 1421.45,1937.41 1450.5,1927.5 Z"/></g>
<g><path style="opacity:1" fill="#fbfdfc" d="M 783.5,1932.5 C 789.861,1934.51 795.861,1937.35 801.5,1941C 808.005,1946.18 809.839,1952.68 807,1960.5C 803.102,1973.53 794.602,1978.36 781.5,1975C 776.284,1973.32 771.284,1971.15 766.5,1968.5C 772.181,1956.47 777.847,1944.47 783.5,1932.5 Z"/></g>
<g><path style="opacity:1" fill="#049240" d="M 913.5,1950.5 C 940.705,1948.29 964.039,1956.45 983.5,1975C 978.996,1989.18 974.496,2003.34 970,2017.5C 957.199,1991.79 937.365,1983.96 910.5,1994C 895.968,2003.89 888.302,2017.72 887.5,2035.5C 888.441,2060.11 901.107,2073.77 925.5,2076.5C 930.595,2076.25 935.595,2075.41 940.5,2074C 945.578,2071.76 950.578,2069.76 955.5,2068C 950.632,2082.27 945.965,2096.6 941.5,2111C 908.495,2116.78 881.329,2106.95 860,2081.5C 840.689,2049.95 840.689,2018.28 860,1986.5C 873.179,1967.47 891.012,1955.47 913.5,1950.5 Z"/></g>
<g><path style="opacity:1" fill="#069340" d="M 999.5,1967.5 C 1013.14,1969.13 1026.8,1970.46 1040.5,1971.5C 1038.07,1991.83 1035.74,2012.16 1033.5,2032.5C 1051.86,2034.3 1070.19,2036.3 1088.5,2038.5C 1090.89,2019.12 1093.55,1999.79 1096.5,1980.5C 1097,1980.17 1097.5,1979.83 1098,1979.5C 1111.51,1981.13 1125.01,1982.8 1138.5,1984.5C 1131.37,2035.47 1124.37,2086.47 1117.5,2137.5C 1103.79,2136.16 1090.13,2134.5 1076.5,2132.5C 1076.17,2131.17 1075.83,2129.83 1075.5,2128.5C 1078.17,2108.83 1080.83,2089.16 1083.5,2069.5C 1066.57,2068.27 1049.74,2066.27 1033,2063.5C 1031.5,2063.83 1030,2064.17 1028.5,2064.5C 1025.2,2084.79 1022.2,2105.12 1019.5,2125.5C 1005.84,2123.75 992.17,2122.08 978.5,2120.5C 984.665,2069.35 991.665,2018.35 999.5,1967.5 Z"/></g>
<g><path style="opacity:1" fill="#049240" d="M 1280.5,1967.5 C 1322.39,1965.27 1351.55,1983.27 1368,2021.5C 1378.96,2069.08 1362.46,2103.25 1318.5,2124C 1276.73,2137.19 1243.23,2126.02 1218,2090.5C 1199.09,2052.59 1204.59,2018.76 1234.5,1989C 1247.99,1977.75 1263.33,1970.58 1280.5,1967.5 Z"/></g>
<g><path style="opacity:1" fill="#fdfefe" d="M 1281.5,2003.5 C 1307.32,2002.33 1323.16,2014.33 1329,2039.5C 1332.35,2057.11 1327.85,2072.28 1315.5,2085C 1303.64,2093.24 1290.64,2095.57 1276.5,2092C 1261.22,2085.04 1252.38,2073.21 1250,2056.5C 1246.23,2030 1256.73,2012.33 1281.5,2003.5 Z"/></g>
</svg>
